<svg width="36" height="32" viewBox="0 0 36 32" fill="none" xmlns="http://www.w3.org/2000/svg">
<path d="M29.5992 10.3614C29.2161 10.2302 28.8297 10.1086 28.4404 9.99687C28.5058 9.7302 28.566 9.46676 28.6194 9.20796C29.4967 4.95799 28.9232 1.53413 26.9644 0.406834C25.0864 -0.673867 22.015 0.45301 18.9131 3.14733C18.6074 3.41334 18.3084 3.68702 18.0166 3.9681C17.8212 3.78119 17.6224 3.5979 17.4202 3.41834C14.1692 0.537501 10.9107 -0.676674 8.95402 0.453852C7.07766 1.53792 6.52205 4.75659 7.3118 8.78438C7.39037 9.18329 7.47908 9.58014 7.57786 9.97455C7.11661 10.1054 6.67153 10.2446 6.24558 10.3928C2.43408 11.7191 0 13.7976 0 15.9535C0 18.1802 2.61309 20.4136 6.58294 21.7678C6.90478 21.8772 7.2293 21.9785 7.5562 22.0717C7.45003 22.4965 7.35578 22.9242 7.27355 23.3542C6.52064 27.3121 7.10859 30.4547 8.97989 31.5319C10.9126 32.6443 14.1566 31.501 17.3152 28.7452C17.5713 28.5212 17.8218 28.2908 18.0664 28.0543C18.3824 28.3586 18.7069 28.6541 19.0395 28.9404C22.0992 31.5681 25.121 32.6292 26.9904 31.549C28.9214 30.4334 29.549 27.0574 28.7342 22.95C28.67 22.6282 28.598 22.308 28.5183 21.9897C28.7461 21.9223 28.9697 21.853 29.1877 21.7809C33.3148 20.4162 36 18.2099 36 15.9535C36 13.7897 33.4873 11.6972 29.5992 10.3614V10.3614ZM28.7041 20.324C28.5072 20.389 28.3053 20.4517 28.0994 20.5128C27.6438 19.0732 27.029 17.5426 26.2765 15.9609C26.9945 14.4171 27.5857 12.9059 28.0285 11.4757C28.3968 11.5821 28.7542 11.6943 29.0987 11.8126C32.4301 12.9573 34.4621 14.6495 34.4621 15.9535C34.4621 17.3424 32.2675 19.1455 28.7041 20.324V20.324ZM27.2256 23.2481C27.5858 25.0642 27.6372 26.7063 27.3985 27.9901C27.1842 29.1437 26.7531 29.9127 26.2198 30.2207C25.0854 30.8762 22.6592 30.0242 20.0426 27.7769C19.7333 27.5107 19.4314 27.236 19.1374 26.9531C20.1518 25.8459 21.1656 24.5587 22.155 23.1291C23.8954 22.975 25.5396 22.7229 27.0307 22.3789C27.1025 22.6671 27.1675 22.9569 27.2256 23.2481V23.2481ZM12.2732 30.1075C11.1648 30.4981 10.2819 30.5093 9.74827 30.2022C8.61272 29.5486 8.14064 27.0252 8.78456 23.6405C8.86111 23.2406 8.94875 22.8428 9.04739 22.4477C10.522 22.7733 12.1542 23.0074 13.8987 23.1486C14.8949 24.5475 15.9379 25.8332 16.989 26.9591C16.7657 27.1749 16.537 27.3851 16.3032 27.5896C14.9064 28.8081 13.5068 29.6727 12.2732 30.1075V30.1075ZM7.08047 20.3155C5.32505 19.7166 3.87534 18.9383 2.88169 18.0891C1.98872 17.326 1.53802 16.5682 1.53802 15.9535C1.53802 14.6452 3.49228 12.9764 6.75183 11.8422C7.14741 11.7047 7.56141 11.5748 7.99102 11.453C8.44158 12.9155 9.03248 14.4446 9.74559 15.9908C9.0232 17.56 8.42386 19.1135 7.96894 20.5932C7.67055 20.5079 7.3743 20.4153 7.08047 20.3155V20.3155ZM8.82113 8.4895C8.14458 5.03869 8.59387 2.43561 9.72464 1.78227C10.929 1.08641 13.5921 2.07855 16.3991 4.56613C16.5822 4.72871 16.7622 4.89459 16.9393 5.06368C15.8933 6.18466 14.8598 7.46087 13.8725 8.85147C12.1794 9.0081 10.5587 9.25961 9.06862 9.59659C8.97682 9.22974 8.89429 8.86064 8.82113 8.48964V8.4895ZM24.3499 12.3166C23.998 11.7098 23.633 11.1107 23.2552 10.5197C24.4038 10.6647 25.5043 10.8571 26.5378 11.0923C26.2275 12.0849 25.8408 13.1225 25.3856 14.1863C25.0529 13.5563 24.7076 12.9329 24.3499 12.3166V12.3166ZM18.0173 6.16066C18.7266 6.92768 19.437 7.78396 20.1358 8.71308C18.7183 8.64627 17.2984 8.64598 15.8809 8.71224C16.5804 7.79168 17.2969 6.93652 18.0173 6.16066ZM11.644 12.3271C11.2908 12.9385 10.952 13.558 10.6277 14.1851C10.18 13.125 9.79678 12.0826 9.48389 11.076C10.511 10.8467 11.6063 10.6592 12.7477 10.5169C12.3656 11.1115 11.9977 11.7151 11.644 12.327V12.3271ZM12.7804 21.4993C11.6013 21.368 10.4895 21.1901 9.46266 20.967C9.78047 19.9424 10.1721 18.8779 10.6296 17.795C10.9551 18.4226 11.2954 19.0425 11.6501 19.6541C12.0149 20.2829 12.3926 20.8988 12.7804 21.4993ZM18.0598 25.8544C17.3308 25.0696 16.6037 24.2012 15.8937 23.2673C16.5831 23.2943 17.2858 23.308 18 23.308C18.7338 23.308 19.4591 23.2916 20.1731 23.2599C19.4721 24.2106 18.7643 25.0802 18.0598 25.8544ZM25.4001 17.7397C25.8813 18.8345 26.2869 19.8934 26.6089 20.9004C25.5652 21.1382 24.4382 21.3296 23.2508 21.4718C23.6313 20.8698 23.9998 20.2603 24.356 19.6436C24.7181 19.0168 25.0663 18.382 25.4001 17.7397V17.7397ZM23.0238 18.8767C22.4785 19.8222 21.9025 20.7497 21.2968 21.6578C20.1996 21.7353 19.1 21.7739 18 21.7733C16.8796 21.7733 15.7899 21.7385 14.7406 21.6706C14.1191 20.7646 13.5321 19.8354 12.981 18.8852H12.9811C12.4325 17.9399 11.9202 16.9742 11.445 15.9901C11.9189 15.0058 12.4298 14.0397 12.9765 13.0937L12.9763 13.0939C13.5228 12.1476 14.1051 11.2225 14.7219 10.3204C15.7925 10.2395 16.8903 10.1974 17.9999 10.1974H18C19.1146 10.1974 20.2139 10.24 21.2842 10.3214C21.8948 11.2221 22.4733 12.1441 23.0188 13.0856C23.5673 14.0295 24.0848 14.9909 24.5707 15.9684C24.0898 16.9558 23.5739 17.9259 23.0238 18.8767V18.8767ZM26.1963 1.73652C27.4018 2.43041 27.8706 5.22859 27.1132 8.89806C27.0648 9.13217 27.0105 9.37062 26.9515 9.61245C25.4578 9.26831 23.8359 9.01245 22.1379 8.85343C21.1487 7.44754 20.1237 6.16936 19.0948 5.06283C19.3644 4.8034 19.6405 4.55069 19.9228 4.30494C22.5806 1.99659 25.0646 1.08515 26.1963 1.73652V1.73652ZM18 12.7451C19.7754 12.7451 21.2147 14.1816 21.2147 15.9535C21.2147 17.7254 19.7754 19.1619 18 19.1619C16.2246 19.1619 14.7853 17.7254 14.7853 15.9535C14.7853 14.1816 16.2246 12.7451 18 12.7451V12.7451Z" fill="#00D8FF"/>
</svg>
