<svg width="30" height="41" viewBox="0 0 30 41" fill="none" xmlns="http://www.w3.org/2000/svg">
<g clip-path="url(#clip0_31_167)" filter="url(#filter0_d_31_167)">
<path d="M9.5 33C12.536 33 15 30.536 15 27.5V22H9.5C6.464 22 4 24.464 4 27.5C4 30.536 6.464 33 9.5 33Z" fill="#0ACF83"/>
<path d="M4 16.5C4 13.464 6.464 11 9.5 11H15V22H9.5C6.464 22 4 19.536 4 16.5Z" fill="#A259FF"/>
<path d="M4 5.5C4 2.464 6.464 0 9.5 0H15V11H9.5C6.464 11 4 8.536 4 5.5Z" fill="#F24E1E"/>
<path d="M15 0H20.5C23.536 0 26 2.464 26 5.5C26 8.536 23.536 11 20.5 11H15V0Z" fill="#FF7262"/>
<path d="M26 16.5C26 19.536 23.536 22 20.5 22C17.464 22 15 19.536 15 16.5C15 13.464 17.464 11 20.5 11C23.536 11 26 13.464 26 16.5Z" fill="#1ABCFE"/>
</g>
<defs>
<filter id="filter0_d_31_167" x="0" y="0" width="30" height="41" filterUnits="userSpaceOnUse" color-interpolation-filters="sRGB">
<feFlood flood-opacity="0" result="BackgroundImageFix"/>
<feColorMatrix in="SourceAlpha" type="matrix" values="0 0 0 0 0 0 0 0 0 0 0 0 0 0 0 0 0 0 127 0" result="hardAlpha"/>
<feOffset dy="4"/>
<feGaussianBlur stdDeviation="2"/>
<feComposite in2="hardAlpha" operator="out"/>
<feColorMatrix type="matrix" values="0 0 0 0 0 0 0 0 0 0 0 0 0 0 0 0 0 0 0.25 0"/>
<feBlend mode="normal" in2="BackgroundImageFix" result="effect1_dropShadow_31_167"/>
<feBlend mode="normal" in="SourceGraphic" in2="effect1_dropShadow_31_167" result="shape"/>
</filter>
<clipPath id="clip0_31_167">
<rect width="22" height="33" fill="white" transform="translate(4)"/>
</clipPath>
</defs>
</svg>
