<svg width="27" height="36" viewBox="0 0 27 36" fill="none" xmlns="http://www.w3.org/2000/svg">
<path d="M8.70691 27.8295C8.70691 27.8295 7.31493 28.6281 9.69758 28.8983C12.5842 29.2231 14.0593 29.1766 17.2404 28.5826C17.2404 28.5826 18.0768 29.1 19.2446 29.5481C12.1138 32.563 3.10589 29.3734 8.70691 27.8295ZM7.83553 23.8951C7.83553 23.8951 6.27427 25.0353 8.65871 25.2785C11.7422 25.5923 14.1773 25.618 18.3909 24.8176C18.3909 24.8176 18.9738 25.4005 19.8902 25.7193C11.2684 28.2064 1.6654 25.9154 7.83553 23.8951Z" fill="#5382A1"/>
<path d="M15.1814 17.2212C16.9385 19.2168 14.7198 21.0126 14.7198 21.0126C14.7198 21.0126 19.1812 18.7406 17.1323 15.8953C15.2187 13.2421 13.7511 11.9237 21.6957 7.3783C21.6957 7.3783 9.2253 10.4508 15.1814 17.2211" fill="#E76F00"/>
<path d="M24.6127 30.7396C24.6127 30.7396 25.6428 31.5769 23.4781 32.2247C19.3621 33.4548 6.34664 33.8263 2.73096 32.2737C1.43127 31.716 3.86865 30.9419 4.63531 30.7794C5.43486 30.6083 5.89186 30.6403 5.89186 30.6403C4.44641 29.6357 -3.45088 32.6127 1.88046 33.4651C16.4196 35.7912 28.3839 32.4178 24.6127 30.7396ZM9.37623 19.8187C9.37623 19.8187 2.75585 21.3701 7.03187 21.9333C8.83729 22.1717 12.4364 22.1178 15.7889 21.8407C18.5288 21.6128 21.28 21.1279 21.28 21.1279C21.28 21.1279 20.3139 21.5361 19.6149 22.0069C12.8919 23.7513 -0.0957061 22.9398 3.64327 21.1555C6.80533 19.6477 9.37634 19.8187 9.37634 19.8187M21.2526 26.3676C28.087 22.8642 24.9271 19.4974 22.7215 19.9511C22.1809 20.062 21.9399 20.1581 21.9399 20.1581C21.9399 20.1581 22.1406 19.8481 22.5239 19.7139C26.8871 18.2005 30.2428 24.1771 21.1153 26.5442C21.1153 26.5443 21.2211 26.4511 21.2526 26.3676Z" fill="#5382A1"/>
<path d="M17.1322 0.0385562C17.1322 0.0385562 20.9172 3.77382 13.5424 9.51727C7.62862 14.1246 12.1938 16.7516 13.5399 19.753C10.0879 16.6805 7.55458 13.9758 9.25421 11.4585C11.7487 7.76305 18.6593 5.97148 17.1322 0.0384521" fill="#E76F00"/>
<path d="M10.0478 35.8611C16.6078 36.2754 26.6814 35.6313 26.92 32.5691C26.92 32.5691 26.4614 33.73 21.4985 34.6519C15.8994 35.6913 8.99371 35.57 4.89783 34.9038C4.89793 34.9038 5.7363 35.5884 10.0479 35.8611" fill="#5382A1"/>
</svg>
