<svg width="30" height="31" viewBox="0 0 30 31" fill="none" xmlns="http://www.w3.org/2000/svg">
<path d="M29.8837 18.5632C29.7038 18.0173 29.2326 17.6371 28.6232 17.5458C28.3359 17.5028 28.0068 17.5212 27.6174 17.6016C26.9387 17.7419 26.4351 17.7953 26.0676 17.8057C27.4548 15.459 28.5827 12.7829 29.232 10.2637C30.282 6.19042 29.7209 4.33476 29.0653 3.49542C27.3301 1.27375 24.7985 0.0802498 21.7443 0.0437308C20.1151 0.0237687 18.6848 0.346098 17.9387 0.577894C17.244 0.455068 16.497 0.386492 15.7133 0.37381C14.2441 0.350326 12.946 0.671246 11.8368 1.33082C11.2228 1.12274 10.2372 0.829416 9.0991 0.642242C6.4223 0.201901 4.26488 0.545015 2.68683 1.66207C0.775972 3.01456 -0.109849 5.36446 0.0539794 8.64647C0.106011 9.68849 0.687729 12.8589 1.60367 15.8657C2.13007 17.594 2.6914 19.0291 3.27207 20.1317C4.09554 21.6952 4.97667 22.616 5.96585 22.9466C6.52027 23.1317 7.52761 23.2613 8.5871 22.3771C8.7214 22.5401 8.90058 22.702 9.13836 22.8524C9.44035 23.0433 9.8096 23.1992 10.1784 23.2916C11.5074 23.6245 12.7523 23.5413 13.8144 23.0746C13.8209 23.2639 13.826 23.4447 13.8302 23.6009C13.8372 23.8542 13.8443 24.1026 13.8535 24.3348C13.9164 25.9052 14.0231 27.1263 14.339 27.9807C14.3564 28.0277 14.3797 28.0993 14.4043 28.1753C14.5619 28.6588 14.8255 29.4684 15.496 30.1023C16.1903 30.7591 17.0302 30.9605 17.7994 30.9605C18.1852 30.9605 18.5533 30.9097 18.8762 30.8405C20.0269 30.5933 21.3339 30.2168 22.2794 28.8679C23.1733 27.5926 23.6078 25.6719 23.6865 22.6455C23.6967 22.5599 23.706 22.4782 23.7151 22.4004L23.7338 22.2404L23.9444 22.259L23.9987 22.2626C25.1708 22.3162 26.604 22.0671 27.4842 21.6574C28.1797 21.334 30.4085 20.155 29.8837 18.5632Z" fill="black"/>
<path d="M27.8796 18.8727C24.3945 19.5931 24.1548 18.4107 24.1548 18.4107C27.8345 12.9396 29.3728 5.99474 28.0454 4.29502C24.4239 -0.341473 18.1549 1.85131 18.0503 1.90814L18.0167 1.91425C17.3281 1.77099 16.5576 1.68574 15.6914 1.67153C14.1145 1.6457 12.9183 2.0858 12.0106 2.77555C12.0106 2.77555 0.827362 -1.84086 1.34756 8.58148C1.45818 10.7987 4.51912 25.3582 8.16998 20.9606C9.50439 19.3525 10.7938 17.9928 10.7938 17.9928C11.4341 18.419 12.2008 18.6365 13.0044 18.5584L13.0669 18.5054C13.0474 18.705 13.0563 18.9002 13.0919 19.1315C12.1513 20.1844 12.4278 20.3692 10.5476 20.7571C8.64506 21.15 9.76267 21.8494 10.4924 22.0323C11.377 22.2539 13.4236 22.5679 14.8064 20.6281L14.7513 20.8495C15.1198 21.1453 15.3785 22.7733 15.3352 24.2492C15.2918 25.7249 15.2629 26.7382 15.5531 27.5296C15.8437 28.3211 16.133 30.1018 18.6047 29.5712C20.6699 29.1277 21.7402 27.9784 21.8891 26.0614C21.9947 24.6985 22.2339 24.9 22.2489 23.6815L22.4407 23.1047C22.6619 21.2573 22.4759 20.6613 23.7482 20.9385L24.0576 20.9657C24.9939 21.0084 26.2197 20.8147 26.9391 20.4797C28.4881 19.7594 29.4068 18.5567 27.8794 18.8727H27.8796Z" fill="#336791"/>
<path d="M12.6652 9.573C12.3511 9.5292 12.0667 9.56971 11.9228 9.67892C11.8419 9.74033 11.8169 9.81149 11.8101 9.86046C11.792 9.99021 11.8827 10.1337 11.9385 10.2077C12.0962 10.4172 12.3266 10.5611 12.5547 10.5928C12.5877 10.5975 12.6207 10.5996 12.6534 10.5996C13.0336 10.5996 13.3795 10.3029 13.4099 10.0839C13.448 9.80961 13.0506 9.62678 12.6652 9.57312M23.0696 9.58169C23.0396 9.36669 22.6578 9.30539 22.2954 9.35588C21.9336 9.40638 21.5827 9.57007 21.612 9.78554C21.6354 9.9531 21.9374 10.2391 22.2948 10.2391C22.3251 10.2391 22.3555 10.2372 22.3862 10.2328C22.6248 10.1997 22.7999 10.0479 22.8831 9.96038C23.0097 9.82699 23.083 9.67833 23.0696 9.58169Z" fill="white"/>
<path d="M29.0393 18.7908C28.9064 18.3882 28.4787 18.2587 27.768 18.4057C25.6581 18.842 24.9025 18.5398 24.6544 18.3567C26.2944 15.8532 27.6436 12.827 28.3714 10.0035C28.7162 8.66606 28.9066 7.42395 28.9222 6.41151C28.9394 5.30033 28.7505 4.48376 28.361 3.98494C26.7905 1.97405 24.4854 0.895393 21.6951 0.865802C19.7769 0.844196 18.1562 1.33609 17.842 1.47441C17.1804 1.30955 16.4591 1.20833 15.6738 1.19541C14.2338 1.17204 12.9891 1.51751 11.9585 2.2217C11.5109 2.05472 10.354 1.65677 8.93917 1.42838C6.49323 1.03384 4.54956 1.3328 3.16253 2.3174C1.50749 3.49235 0.74343 5.5926 0.891438 8.55967C0.941243 9.5579 1.5089 12.6288 2.40468 15.5697C3.58382 19.4404 4.86562 21.6317 6.21421 22.0825C6.37206 22.1352 6.55405 22.1721 6.7548 22.1721C7.24675 22.1721 7.84991 21.9499 8.47745 21.1939C9.24287 20.2739 10.0346 19.3761 10.8518 18.5019C11.3819 18.787 11.9644 18.9462 12.56 18.9622C12.5612 18.9778 12.5627 18.9934 12.5641 19.0089C12.4616 19.1314 12.3612 19.2557 12.263 19.3817C11.8502 19.9067 11.7643 20.0161 10.4358 20.2901C10.0578 20.3683 9.05413 20.5756 9.03937 21.2806C9.02343 22.0509 10.2259 22.3744 10.3629 22.4087C10.8403 22.5285 11.3003 22.5875 11.7389 22.5875C12.8057 22.5875 13.7444 22.2362 14.4947 21.5564C14.4716 24.3025 14.5859 27.0084 14.9149 27.8329C15.1844 28.5078 15.8428 30.1573 17.9224 30.1572C18.2276 30.1572 18.5634 30.1216 18.9329 30.0422C21.1034 29.576 22.0459 28.6148 22.4105 26.4956C22.6056 25.3631 22.9404 22.6587 23.0979 21.208C23.4302 21.3119 23.8581 21.3595 24.3206 21.3594C25.2853 21.3594 26.3985 21.154 27.0966 20.8293C27.8808 20.4644 29.2959 19.5689 29.0393 18.7908ZM23.8706 8.98827C23.8635 9.41652 23.8046 9.80531 23.7423 10.2111C23.6751 10.6476 23.6058 11.0989 23.5883 11.6466C23.5711 12.1797 23.6375 12.734 23.7017 13.27C23.8316 14.3527 23.9648 15.4673 23.4491 16.5671C23.3634 16.415 23.2871 16.2577 23.2206 16.0963C23.1565 15.9406 23.0173 15.6905 22.8245 15.3443C22.0746 13.9968 20.3185 10.8411 21.2175 9.55343C21.4853 9.17016 22.1648 8.77609 23.8706 8.98827ZM21.803 1.73298C24.303 1.78829 26.2807 2.72545 27.6809 4.51828C28.7548 5.89344 27.5722 12.1506 24.1488 17.5487C24.1144 17.5049 24.0798 17.4611 24.045 17.4176L24.0016 17.3633C24.8863 15.8994 24.7133 14.451 24.5593 13.1668C24.496 12.6398 24.4363 12.1421 24.4515 11.6745C24.4672 11.1789 24.5326 10.7539 24.5959 10.3429C24.6736 9.83643 24.7527 9.31236 24.7309 8.69459C24.7472 8.62978 24.7537 8.55322 24.7452 8.46233C24.6895 7.86992 24.0145 6.09694 22.6387 4.49222C21.8862 3.61447 20.7887 2.63222 19.2902 1.96971C19.9348 1.83584 20.8161 1.71102 21.803 1.73298ZM7.81335 20.6406C7.12195 21.4736 6.64452 21.3139 6.48749 21.2616C5.46445 20.9196 4.27734 18.7529 3.23073 15.3171C2.32511 12.3441 1.79589 9.35464 1.75394 8.51634C1.62175 5.86514 2.26312 4.01747 3.66034 3.02453C5.93425 1.40877 9.67277 2.37588 11.175 2.86636C11.1534 2.88773 11.1309 2.90769 11.1096 2.92942C8.64445 5.42398 8.70292 9.68601 8.70902 9.94657C8.70878 10.0471 8.71722 10.1894 8.7287 10.3852C8.77113 11.102 8.85011 12.4362 8.63917 13.9471C8.44323 15.3511 8.87519 16.7254 9.82405 17.7175C9.92144 17.8191 10.0238 17.9158 10.1307 18.0073C9.70839 18.4605 8.79046 19.4629 7.81335 20.6406ZM10.4476 17.1187C9.68284 16.3191 9.3355 15.2068 9.49452 14.0669C9.71718 12.4708 9.63503 11.0808 9.59085 10.334C9.58464 10.2294 9.57913 10.1379 9.57597 10.0656C9.93609 9.74566 11.605 8.84971 12.7951 9.12296C13.3382 9.24754 13.6691 9.61814 13.8067 10.2555C14.5187 13.5555 13.9009 14.9309 13.4045 16.0362C13.3022 16.2639 13.2055 16.4791 13.123 16.7018L13.059 16.8739C12.8971 17.3091 12.7464 17.7137 12.653 18.0979C11.8399 18.0956 11.049 17.7475 10.4476 17.1186V17.1187ZM10.5724 21.5691C10.335 21.5097 10.1215 21.4065 9.9962 21.3209C10.1009 21.2716 10.2871 21.2044 10.61 21.1377C12.173 20.8154 12.4144 20.5878 12.9415 19.9172C13.0623 19.7634 13.1993 19.5891 13.389 19.3768L13.3892 19.3766C13.6718 19.0595 13.801 19.1133 14.0354 19.2108C14.2254 19.2894 14.4104 19.528 14.4854 19.7906C14.5209 19.9146 14.5608 20.1499 14.4303 20.3331C13.3293 21.8779 11.7247 21.8581 10.5724 21.5691ZM18.752 29.196C16.84 29.6066 16.163 28.629 15.7168 27.5115C15.4289 26.79 15.2873 23.5367 15.3878 19.9438C15.3891 19.896 15.3823 19.8499 15.3691 19.8064C15.3574 19.7207 15.3395 19.6358 15.3157 19.5526C15.1664 19.0298 14.8025 18.5925 14.366 18.4112C14.1926 18.3392 13.8743 18.2071 13.4918 18.3052C13.5734 17.9684 13.7148 17.5881 13.8682 17.1763L13.9325 17.0031C14.005 16.8078 14.0959 16.6055 14.192 16.3913C14.7115 15.2349 15.4229 13.651 14.6508 10.0727C14.3616 8.7324 13.3957 8.07788 11.9316 8.22995C11.0538 8.32095 10.2507 8.67581 9.85019 8.8793C9.76406 8.92298 9.6853 8.96526 9.61171 9.00635C9.72351 7.65598 10.1459 5.13229 11.7258 3.53556C12.7206 2.53041 14.0454 2.03394 15.6595 2.06071C18.84 2.11285 20.8795 3.74833 22.0305 5.11128C23.0224 6.28564 23.5595 7.46869 23.7738 8.10677C22.1619 7.94249 21.0656 8.2613 20.5099 9.05744C19.3009 10.7892 21.1713 14.1504 22.0703 15.7658C22.2351 16.0618 22.3774 16.3177 22.4222 16.4264C22.7149 17.1373 23.0939 17.6119 23.3706 17.9583C23.4554 18.0645 23.5377 18.1674 23.6003 18.2574C23.1121 18.3984 22.2351 18.7243 22.3151 20.3531C22.2506 21.1703 21.7923 24.9967 21.5594 26.3486C21.2521 28.1346 20.5962 28.7999 18.752 29.1962V29.196ZM26.7329 20.0445C26.2337 20.2766 25.3983 20.4508 24.6047 20.4882C23.7281 20.5293 23.2819 20.3898 23.1769 20.304C23.1276 19.289 23.5046 19.1829 23.9037 19.0707C23.9664 19.0531 24.0275 19.0358 24.0866 19.0151C24.1233 19.0451 24.1635 19.0748 24.2075 19.1039C24.9121 19.5698 26.1687 19.6201 27.9428 19.2531L27.9622 19.2493C27.7229 19.4734 27.3135 19.7743 26.7329 20.0445Z" fill="white"/>
</svg>
