<svg width="30" height="30" viewBox="0 0 30 30" fill="none" xmlns="http://www.w3.org/2000/svg">
<path d="M14.8729 0.00842285C7.27544 0.00842285 7.74982 3.31607 7.74982 3.31607L7.75826 6.74289H15.0084V7.77172H4.87861C4.87861 7.77172 0.0169678 7.21819 0.0169678 14.9141C0.0169678 22.6102 4.26033 22.3372 4.26033 22.3372H6.79275V18.766C6.79275 18.766 6.65623 14.506 10.9684 14.506H18.1592C18.1592 14.506 22.1993 14.5715 22.1993 10.5861V3.99642C22.1993 3.99642 22.8129 0.00842285 14.8729 0.00842285ZM10.8752 2.31289C11.0465 2.31274 11.2162 2.3465 11.3745 2.41225C11.5328 2.478 11.6767 2.57445 11.7978 2.69607C11.919 2.81769 12.015 2.9621 12.0805 3.12103C12.146 3.27997 12.1797 3.45031 12.1795 3.62231C12.1797 3.7943 12.146 3.96464 12.0805 4.12358C12.015 4.28251 11.919 4.42692 11.7978 4.54854C11.6767 4.67017 11.5328 4.76661 11.3745 4.83236C11.2162 4.89811 11.0465 4.93187 10.8752 4.93172C10.7039 4.93187 10.5342 4.89811 10.3759 4.83236C10.2176 4.76661 10.0737 4.67017 9.95259 4.54854C9.83144 4.42692 9.73538 4.28251 9.66988 4.12358C9.60439 3.96464 9.57076 3.7943 9.57091 3.62231C9.57076 3.45031 9.60439 3.27997 9.66988 3.12103C9.73538 2.9621 9.83144 2.81769 9.95259 2.69607C10.0737 2.57445 10.2176 2.478 10.3759 2.41225C10.5342 2.3465 10.7039 2.31274 10.8752 2.31289Z" fill="url(#paint0_linear_31_154)"/>
<path d="M15.0887 29.8972C22.6862 29.8972 22.2118 26.5895 22.2118 26.5895L22.2033 23.1628H14.9531V22.134H25.0829C25.0829 22.134 29.9445 22.6875 29.9445 14.9914C29.9445 7.29539 25.7012 7.56834 25.7012 7.56834H23.1687V11.1395C23.1687 11.1395 23.3053 15.3995 18.9931 15.3995H11.8023C11.8023 15.3995 7.76221 15.334 7.76221 19.3195V25.9093C7.76221 25.9093 7.14873 29.8972 15.0885 29.8972H15.0887ZM19.0864 27.5929C18.9151 27.5931 18.7454 27.5593 18.5871 27.4936C18.4288 27.4278 18.2849 27.3314 18.1638 27.2098C18.0426 27.0881 17.9466 26.9437 17.8811 26.7848C17.8156 26.6259 17.7819 26.4555 17.7821 26.2835C17.7819 26.1115 17.8155 25.9412 17.881 25.7822C17.9465 25.6233 18.0426 25.4788 18.1637 25.3572C18.2849 25.2356 18.4287 25.1391 18.587 25.0734C18.7454 25.0076 18.9151 24.9738 19.0864 24.974C19.2577 24.9738 19.4274 25.0076 19.5857 25.0733C19.744 25.1391 19.8879 25.2355 20.009 25.3572C20.1302 25.4788 20.2262 25.6232 20.2917 25.7821C20.3572 25.9411 20.3908 26.1114 20.3907 26.2834C20.3908 26.4554 20.3572 26.6257 20.2917 26.7847C20.2262 26.9436 20.1302 27.088 20.009 27.2096C19.8879 27.3313 19.744 27.4277 19.5857 27.4934C19.4274 27.5592 19.2577 27.593 19.0864 27.5928V27.5929Z" fill="url(#paint1_linear_31_154)"/>
<defs>
<linearGradient id="paint0_linear_31_154" x1="2.893" y1="2.69673" x2="17.7817" y2="17.3793" gradientUnits="userSpaceOnUse">
<stop stop-color="#387EB8"/>
<stop offset="1" stop-color="#366994"/>
</linearGradient>
<linearGradient id="paint1_linear_31_154" x1="11.9964" y1="12.1624" x2="27.9822" y2="27.2153" gradientUnits="userSpaceOnUse">
<stop stop-color="#FFE052"/>
<stop offset="1" stop-color="#FFC331"/>
</linearGradient>
</defs>
</svg>
